HIERARCHY
ROOT Hips
{
	OFFSET 0.00000 0.00000 0.00000
	CHANNELS 6 Xposition Yposition Zposition Zrotation Yrotation Xrotation 
	JOINT LHipJoint
	{
		OFFSET 0 0 0
		CHANNELS 3 Zrotation Yrotation Xrotation
		JOINT LeftHip
		{
			OFFSET 1.86795 -1.59681 0.65681
			CHANNELS 3 Zrotation Yrotation Xrotation
			JOINT LeftKnee
			{
				OFFSET 2.30491 -6.33268 0.00000
				CHANNELS 3 Zrotation Yrotation Xrotation
				JOINT LeftAnkle
				{
					OFFSET 2.46780 -6.78022 0.00000
					CHANNELS 3 Zrotation Yrotation Xrotation
					JOINT LeftToe
					{
						OFFSET 0.07897 -0.21698 1.59652
						CHANNELS 3 Zrotation Yrotation Xrotation
						End Site
						{
							OFFSET 0.00000 -0.00000 0.82310
						}
					}
				}
			}
		}
	}
	JOINT RHipJoint
	{
		OFFSET 0 0 0
		CHANNELS 3 Zrotation Yrotation Xrotation
		JOINT RightHip
		{
			OFFSET -1.93650 -1.59681 0.65681
			CHANNELS 3 Zrotation Yrotation Xrotation
			JOINT RightKnee
			{
				OFFSET -2.29410 -6.30299 0.00000
				CHANNELS 3 Zrotation Yrotation Xrotation
				JOINT RightAnkle
				{
					OFFSET -2.48738 -6.83403 0.00000
					CHANNELS 3 Zrotation Yrotation Xrotation
					JOINT RightToe
					{
						OFFSET -0.08699 -0.23899 1.89395
						CHANNELS 3 Zrotation Yrotation Xrotation
						End Site
						{
							OFFSET -0.00000 -0.00000 0.96904
						}
					}
				}
			}
		}
	}
	JOINT lowerback
	{
		OFFSET 0 0 0
		CHANNELS 3 Zrotation Yrotation Xrotation
		JOINT Chest
		{
			OFFSET 0.03629 1.99740 -0.07548
			CHANNELS 3 Zrotation Yrotation Xrotation
			JOINT Chest2
			{
				OFFSET 0.03970 1.94298 0.17218
				CHANNELS 3 Zrotation Yrotation Xrotation
				JOINT lowerneck
				{
					OFFSET 0 0 0
					CHANNELS 3 Zrotation Yrotation Xrotation
					JOINT Neck
					{
						OFFSET -0.05054 1.79469 0.04241
						CHANNELS 3 Zrotation Yrotation Xrotation
						JOINT Head
						{
							OFFSET 0.05195 1.78475 -0.22133
							CHANNELS 3 Zrotation Yrotation Xrotation
							End Site
							{
								OFFSET 0.02420 1.80711 -0.07950
							}
						}
					}
				}
				JOINT LeftCollar
				{
					OFFSET 0 0 0
					CHANNELS 3 Zrotation Yrotation Xrotation
					JOINT LeftShoulder
					{
						OFFSET 2.92134 1.19850 0.36056
CHANNELS 3 Zrotation Xrotation Yrotation
						JOINT LeftElbow
						{
OFFSET 0 -4.841370 0.000000
CHANNELS 3 Zrotation Xrotation Yrotation
							JOINT LeftWrist
							{
OFFSET 0 -3.245200 -0.000000
CHANNELS 3 Zrotation Xrotation Yrotation
								JOINT lhand
								{
									OFFSET 0 0 0
CHANNELS 3 Zrotation Xrotation Yrotation
									JOINT LFingers
									{
OFFSET 0 -0.521220 0.000000
CHANNELS 3 Zrotation Xrotation Yrotation
										End Site
										{
OFFSET 0 -0.420220 0.000000
										}
									}
								}
								JOINT LThumb
								{
OFFSET 0 0.000000 0.000000
CHANNELS 3 Zrotation Xrotation Yrotation
									End Site
									{
OFFSET 0 -0.426640 0.426640
									}
								}
							}
						}
					}
				}
				JOINT RightCollar
				{
					OFFSET 0 0 0
					CHANNELS 3 Zrotation Yrotation Xrotation
					JOINT RightShoulder
					{
						OFFSET -2.84327 1.20795 0.50191
CHANNELS 3 Zrotation Xrotation Yrotation
						JOINT RightElbow
						{
OFFSET 0 -4.722840 0.000000
CHANNELS 3 Zrotation Xrotation Yrotation
							JOINT RightWrist
							{
OFFSET 0 -3.234590 0.000000
CHANNELS 3 Zrotation Xrotation Yrotation
								JOINT rhand
								{
									OFFSET 0 0 0
CHANNELS 3 Zrotation Xrotation Yrotation
									JOINT RFingers
									{
OFFSET 0 -0.307420 0.000000
CHANNELS 3 Zrotation Xrotation Yrotation
										End Site
										{
OFFSET 0 -0.247850 0.000000
										}
									}
								}
								JOINT RThumb
								{
OFFSET 0 0.000000 0.000000
CHANNELS 3 Zrotation Xrotation Yrotation
									End Site
									{
OFFSET 0 -0.251630 0.251630
									}
								}
							}
						}
					}
				}
			}
		}
	}
}
MOTION
Frames: 10
Frame Time: 0.008333333333333333
10.148100 18.030400 -5.211100 1.040000 -26.236500 8.995900 0.000000 0.000000 0.000000 -25.691000 -21.336500 -2.412800 1.134600 6.764900 19.020600 1.323200 17.892500 22.539200 1.030900 6.458300 18.120000 0.000000 0.000000 0.000000 23.247900 26.259300 -14.970300 -2.358900 -9.576700 27.616500 -1.508400 -21.552600 24.977000 -0.691200 5.315100 -14.809500 -0.513400 1.014700 -8.506900 -0.012000 1.311100 -6.779400 0.359300 0.647100 -2.267100 -5.456500 -1.638800 -1.707900 5.186400 -2.879800 19.733200 2.397600 -1.463100 6.400200 -0.000000 -0.000000 0.000000 75.505900 -0.747600 21.753500 13.089100 -21.417600 2.485700 -27.642900 16.759100 -31.337300 0.000000 0.000000 0.000000 -7.125000 0.000000 0.000000 -58.462900 52.191300 14.370600 -0.000000 -0.000000 0.000000 -89.846500 -11.101500 -5.541900 -12.101900 -19.957300 -2.136900 4.725900 -22.826800 0.910000 0.000000 0.000000 0.000000 7.125000 0.000000 -0.000000 24.247400 30.264300 9.505300
10.088067 18.019379 -5.142756 0.182697 -26.479837 9.351697 0.000000 0.000000 0.000000 -24.989432 -21.215399 -2.632757 1.249611 7.087423 19.974568 1.275751 17.309399 22.038291 1.007165 6.385582 17.907418 0.000000 0.000000 0.000000 24.527231 26.983309 -13.621825 -2.219957 -9.310041 26.770016 -1.413280 -22.687337 24.900644 -0.715163 5.404393 -15.065563 0.533727 1.474197 -8.839609 0.037142 1.852765 -6.991523 -0.136151 0.879685 -2.280816 -4.102913 0.142576 -1.893814 5.265873 -0.565411 20.597078 2.345104 -0.232311 6.569624 0.000000 0.000000 0.000000 75.657870 -1.048140 19.007452 13.047158 -21.356178 2.470391 -26.593466 14.757000 -31.753216 0.000000 0.000000 0.000000 -7.125000 0.000000 0.000000 -58.102139 52.659863 15.023030 0.000000 0.000000 0.000000 -89.661366 -10.085858 -5.698064 -12.095314 -19.947434 -2.134707 7.126778 -21.905308 -0.158650 0.000000 0.000000 0.000000 7.125000 0.000000 0.000000 25.715923 29.178316 10.951161
10.020644 18.026910 -5.071140 0.318538 -26.583410 9.610877 0.000000 0.000000 0.000000 -24.781195 -21.867282 -2.592312 1.264245 7.127266 20.092917 1.011833 19.493477 21.150595 1.872845 8.583747 24.509674 0.000000 0.000000 0.000000 25.162755 27.365359 -13.473900 -2.244075 -9.356923 26.918387 -1.233118 -24.505676 24.717464 -0.345990 3.771756 -10.436316 0.671562 1.573247 -9.446300 -0.253142 1.960992 -7.276951 -0.493528 0.918792 -2.233385 -3.639914 1.302426 -2.231227 6.060783 0.836846 21.250661 2.621866 0.549314 6.760816 0.000000 0.000000 0.000000 75.918859 -0.775605 18.897273 12.832327 -21.041037 2.392778 -23.443587 16.913876 -32.533594 0.000000 0.000000 0.000000 -7.125000 0.000000 0.000000 -56.478870 53.779970 16.134497 0.000000 0.000000 0.000000 -89.065079 -9.565023 -5.307036 -12.093907 -19.945288 -2.134236 6.614356 -22.729021 -0.268129 0.000000 0.000000 0.000000 7.125000 0.000000 0.000000 25.325139 29.102855 10.800974
9.953177 18.034104 -5.015587 0.647281 -26.001699 9.406041 0.000000 0.000000 0.000000 -24.748458 -21.902259 -2.217395 1.218200 7.000931 19.718119 1.849712 15.163348 25.168203 0.410956 2.894131 8.073220 0.000000 0.000000 0.000000 25.738987 26.895100 -13.290064 -2.294606 -9.454381 27.227464 -1.073699 -25.514884 24.344194 -0.109666 2.135402 -5.880082 0.206654 1.349552 -9.394426 -0.327353 1.694250 -7.407668 -0.332905 0.800052 -2.413429 -3.604939 2.086902 -2.577969 6.631070 1.821836 21.410374 2.868758 1.081260 6.811924 0.000000 0.000000 0.000000 75.669801 -0.629514 19.986775 12.851406 -21.069067 2.399634 -17.614395 20.170876 -37.650278 0.000000 0.000000 0.000000 -7.125000 0.000000 0.000000 -57.468975 58.309669 23.542459 0.000000 0.000000 0.000000 -89.131815 -9.045735 -4.077190 -12.119585 -19.983651 -2.143014 5.888153 -23.501404 -1.428575 0.000000 0.000000 0.000000 7.125000 0.000000 0.000000 24.540077 28.075577 11.067684
9.931159 18.071026 -4.961369 0.970387 -25.711414 9.837401 0.000000 0.000000 0.000000 -24.786738 -23.470791 -2.518715 1.265972 7.131836 20.106573 0.807298 21.863917 20.943998 3.102694 10.859111 31.806554 0.000000 0.000000 0.000000 25.120314 27.281927 -13.520901 -2.222097 -9.314166 26.783059 -1.117317 -25.967868 24.809126 -0.077712 1.798042 -4.947846 0.517538 1.565850 -9.909627 -0.606617 1.950766 -7.617998 -0.766654 0.907872 -2.332302 -3.401390 2.367086 -2.480159 6.341776 2.260581 21.213506 2.760378 1.287440 6.715695 0.000000 0.000000 0.000000 75.885044 -0.773969 20.589980 13.040020 -21.345853 2.467836 -15.868158 21.078194 -39.067969 0.000000 0.000000 0.000000 -7.125000 0.000000 0.000000 -57.800694 59.604922 25.590483 0.000000 0.000000 0.000000 -89.475594 -8.567357 -7.577043 -11.646850 -19.272831 -1.984221 6.571478 -19.774545 -2.498289 0.000000 0.000000 0.000000 7.125000 0.000000 0.000000 24.783464 27.071059 11.857714
9.886376 18.082092 -4.925643 1.586258 -24.450705 9.958933 0.000000 0.000000 0.000000 -24.540705 -23.250504 -2.723524 1.151901 6.814412 19.166708 0.678358 22.770682 20.610990 3.636610 11.658466 34.536824 0.000000 0.000000 0.000000 25.068881 25.970434 -14.480286 -2.312197 -9.488111 27.334583 -0.890576 -26.981462 24.137707 -0.015567 -0.750644 2.063196 -0.211171 1.241188 -9.524734 -0.709822 1.560611 -8.220331 -0.513233 0.735223 -3.201737 -3.552093 2.632792 -2.244152 6.632789 2.582494 21.298133 2.896712 1.453049 6.675506 0.000000 0.000000 0.000000 76.631605 -0.269917 19.644491 12.851643 -21.069450 2.399676 -17.252904 18.957541 -39.486188 0.000000 0.000000 0.000000 -7.125000 0.000000 0.000000 -59.504510 59.514918 26.570099 0.000000 0.000000 0.000000 -90.518671 -7.214392 -5.502160 -12.150184 -20.029536 -2.153507 7.428378 -22.597704 -0.994575 0.000000 0.000000 0.000000 7.125000 0.000000 0.000000 25.726966 28.405033 11.491479
9.788207 18.054257 -4.945957 2.883698 -21.626111 10.076410 0.000000 0.000000 0.000000 -24.173424 -24.732018 -3.656902 1.155856 6.825833 19.200509 0.624801 24.947139 21.499681 5.125307 13.523403 41.361110 0.000000 0.000000 0.000000 25.223916 26.025040 -15.285734 -2.386697 -9.628920 27.783095 -2.840013 -23.046503 32.314658 -0.516904 4.550429 -12.639571 -2.376226 0.124341 -9.037303 -1.026106 0.184214 -8.649596 0.277751 0.144575 -3.951552 -3.442692 2.720036 -2.543469 6.921550 2.655870 21.178414 2.978634 1.525593 6.681272 0.000000 0.000000 0.000000 78.060252 -0.350879 21.161236 12.695803 -20.839905 2.343976 -22.643742 16.072459 -39.469739 0.000000 0.000000 0.000000 -7.125000 0.000000 0.000000 -63.861665 58.186999 27.507786 0.000000 0.000000 0.000000 -91.804268 -5.365842 -2.678841 -12.736407 -20.899828 -2.358400 13.297152 -27.725436 -0.000114 0.000000 0.000000 0.000000 7.125000 0.000000 0.000000 30.019670 28.962633 13.502501
9.739146 18.068496 -4.963138 2.728372 -18.992945 10.809884 0.000000 0.000000 0.000000 -23.121320 -26.578796 -4.343370 1.193125 6.931246 19.511823 0.628314 25.324027 21.739905 5.504547 13.928559 42.955854 0.000000 0.000000 0.000000 25.357242 26.082289 -15.673352 -2.324874 -9.512378 27.411622 0.483258 -34.327482 22.074679 -0.674213 -5.228679 14.566312 -2.120048 -0.302987 -8.525631 -1.345370 -0.426579 -8.997155 -0.227955 -0.177429 -4.595290 -3.466172 2.548461 -2.780484 6.780763 2.471650 20.979099 2.926164 1.429756 6.672009 0.000000 0.000000 0.000000 79.157972 -1.639476 21.066465 12.984237 -21.264033 2.447595 -25.759155 14.077720 -36.931141 0.000000 0.000000 0.000000 -7.125000 0.000000 0.000000 -63.150703 56.023594 23.484397 0.000000 0.000000 0.000000 -93.226660 -2.890941 -3.332822 -12.626719 -20.737799 -2.319405 15.934955 -26.531880 0.649066 0.000000 0.000000 0.000000 7.125000 0.000000 0.000000 31.955812 29.338142 14.340088
9.722747 18.107567 -4.963129 2.332162 -18.407661 11.421907 0.000000 0.000000 0.000000 -22.931531 -27.000927 -4.763937 1.239640 7.060137 19.893783 0.913293 23.839863 22.588535 4.523691 12.823507 38.716099 0.000000 0.000000 0.000000 24.932472 26.713899 -15.534382 -2.198412 -9.267619 26.636205 1.800654 -36.606286 17.481974 -1.074400 -6.575157 18.467418 -1.612685 -0.205229 -8.350048 -1.335603 -0.329223 -9.215245 -0.497197 -0.154469 -4.927699 -4.029658 2.780560 -2.108902 7.174632 2.786970 20.352152 3.137026 1.561366 6.316733 0.000000 0.000000 0.000000 78.892273 -2.020785 20.787218 13.319454 -21.753494 2.570497 -31.881083 10.065450 -33.837382 0.000000 0.000000 0.000000 -7.125000 0.000000 0.000000 -64.164982 52.938027 18.534945 0.000000 0.000000 0.000000 -94.716930 -1.819941 -4.911612 -12.448041 -20.473154 -2.256567 13.627399 -23.601285 0.250453 0.000000 0.000000 0.000000 7.125000 0.000000 0.000000 30.312812 29.162370 13.504987
9.722036 18.113216 -4.973734 1.137613 -19.469332 11.860378 0.000000 0.000000 0.000000 -22.677135 -26.415774 -5.543585 1.422322 7.541732 21.330696 1.408401 20.880537 24.143709 3.437090 11.370879 33.541327 0.000000 0.000000 0.000000 25.404522 27.205150 -14.915886 -2.049723 -8.968846 25.697962 4.951782 -38.765333 0.604414 -4.928450 -13.298911 40.504748 -0.351249 0.366921 -8.072917 -1.190123 0.380875 -9.139921 -1.024893 0.133921 -4.991275 -3.692244 2.864908 -2.144431 7.036945 2.918898 19.971523 3.033660 1.640612 6.203842 0.000000 0.000000 0.000000 79.455250 -1.796234 22.010680 12.619226 -20.726641 2.316878 -38.278134 8.071627 -32.015025 0.000000 0.000000 0.000000 -7.125000 0.000000 0.000000 -66.367928 50.661294 14.988971 0.000000 0.000000 0.000000 -95.907813 -1.520636 -3.462533 -12.888027 -21.122973 -2.412772 12.287515 -26.789463 -0.266306 0.000000 0.000000 0.000000 7.125000 0.000000 0.000000 29.266141 28.793169 13.198495
